<?xml version="1.0" standalone="no"?>
<!DOCTYPE svg PUBLIC "-//W3C//DTD SVG 20010904//EN"
 "http://www.w3.org/TR/2001/REC-SVG-20010904/DTD/svg10.dtd">
<svg version="1.0" xmlns="http://www.w3.org/2000/svg"
 width="200.000000pt" height="200.000000pt" viewBox="0 0 200.000000 200.000000"
 preserveAspectRatio="xMidYMid meet">
<metadata>
Created by potrace 1.10, written by Peter Selinger 2001-2011
</metadata>
<g transform="translate(0.000000,200.000000) scale(0.100000,-0.100000)"
fill="#000000" stroke="none">
<path d="M496 1425 c-8 -21 9 -61 31 -74 16 -9 16 -10 -4 -11 -14 0 -23 6 -23
15 0 21 -43 19 -63 -3 -21 -23 -21 -49 -1 -107 12 -37 13 -50 3 -61 -9 -11 -8
-18 5 -33 13 -14 15 -28 10 -60 l-7 -41 -92 0 c-88 0 -93 -1 -98 -22 -6 -25
-77 -388 -77 -394 0 -2 153 -4 340 -4 l340 0 2 185 c1 102 2 197 2 213 l1 27
-135 0 -135 0 -3 34 c-2 19 2 45 9 58 10 19 10 28 1 43 -9 15 -8 25 3 47 8 15
18 43 21 62 6 28 3 38 -16 53 -12 10 -31 18 -42 18 -16 0 -18 5 -12 35 6 34 5
35 -24 35 -17 0 -32 -6 -36 -15z m101 -110 c0 -18 -13 -20 -20 -2 -3 6 -5 3
-6 -8 0 -11 -1 -27 -2 -35 -1 -8 2 -24 6 -35 6 -17 5 -18 -5 -5 -10 13 -11 11
-7 -7 3 -12 0 -24 -7 -27 -6 -2 -4 -5 4 -5 11 -1 16 -10 15 -28 0 -26 -3 -28
-43 -28 -39 0 -42 -2 -42 -26 0 -14 -2 -62 -5 -105 l-4 -79 13 50 c7 28 11 70
8 93 -4 42 -3 43 17 33 25 -14 72 -81 65 -93 -3 -5 -6 -35 -6 -68 -1 -45 -5
-60 -17 -63 -11 -3 -10 -5 4 -5 11 0 29 3 40 7 20 8 54 -14 41 -26 -3 -3 -1
-12 4 -18 6 -7 8 -19 5 -27 -7 -17 -64 -40 -78 -31 -6 3 -7 1 -4 -4 9 -14 -82
-21 -126 -9 -27 7 -30 10 -15 19 15 10 15 12 0 23 -14 10 -14 14 -2 30 8 11 2
8 -13 -5 -18 -17 -27 -20 -27 -10 1 23 38 61 51 53 9 -5 10 -2 6 9 -3 9 -2 19
2 21 5 3 12 52 16 108 4 57 11 110 16 120 6 11 5 18 -4 22 -6 4 -1 4 13 2 l25
-5 -25 19 c-21 17 -22 20 -7 20 17 0 17 1 3 16 -14 13 -22 62 -17 102 1 6 -3
12 -10 12 -7 0 -9 -17 -5 -52 6 -54 -4 -36 -17 30 l-6 32 83 0 c67 0 83 -3 83
-15z m-162 -352 c-4 -27 -11 -49 -15 -51 -5 -2 -20 -12 -34 -23 -46 -36 -30
-114 30 -143 43 -20 161 -21 207 -2 72 30 89 114 30 151 -20 12 -34 31 -38 50
-4 17 -9 38 -11 48 -5 15 4 17 90 17 l96 0 0 -43 c0 -24 -3 -99 -7 -165 l-6
-122 -254 0 -255 0 6 28 c3 15 12 79 21 142 24 175 16 160 86 160 l61 0 -7
-47z"/>
<path d="M468 914 c-5 -4 -8 -15 -8 -24 0 -12 10 -16 43 -17 31 0 34 1 10 4
-22 3 -33 10 -35 25 -2 11 -6 16 -10 12z"/>
<path d="M965 1045 c-24 -23 -25 -30 -25 -150 0 -120 1 -127 25 -150 13 -14
28 -25 32 -25 5 0 13 -15 18 -32 l10 -33 158 -3 c135 -2 157 0 157 13 0 13
-21 15 -139 15 -122 0 -140 2 -146 17 -3 10 -1 19 6 22 7 2 23 14 36 27 22 22
23 31 23 152 0 121 -1 130 -23 150 -34 32 -100 30 -132 -3z m101 -26 c10 -17
7 -240 -4 -251 -5 -5 -22 -8 -38 -6 l-29 3 -3 119 c-1 66 0 126 2 133 7 16 62
17 72 2z"/>
<path d="M1688 1062 c-14 -3 -18 -13 -18 -43 0 -28 -4 -39 -15 -39 -8 0 -15
-7 -15 -15 0 -8 7 -15 15 -15 12 0 15 -17 15 -93 0 -102 8 -122 53 -133 23 -5
27 -3 27 14 0 11 -8 22 -20 25 -18 5 -20 14 -20 97 0 87 1 92 20 87 15 -4 20
0 20 14 0 12 -7 19 -19 19 -16 0 -20 8 -23 43 -2 34 -6 42 -20 39z"/>
<path d="M1780 1057 c0 -8 -7 -20 -15 -27 -21 -18 -11 -24 15 -10 18 10 24 9
31 -1 6 -9 8 -2 8 21 0 19 -3 29 -6 22 -4 -10 -8 -10 -19 -1 -11 9 -14 8 -14
-4z"/>
<path d="M1380 977 c-24 -12 -25 -17 -28 -118 -3 -122 1 -128 73 -137 40 -4
45 -3 45 16 0 17 -7 21 -37 24 -35 3 -38 6 -41 35 -3 28 0 33 25 39 52 12 73
32 73 68 0 61 -58 99 -110 73z m63 -54 c6 -31 -4 -48 -33 -56 -17 -4 -20 0
-20 32 0 42 5 51 31 51 10 0 19 -10 22 -27z"/>
<path d="M1160 861 c0 -139 6 -152 68 -133 24 8 38 8 40 2 2 -6 12 -10 23 -10
18 0 19 9 19 130 l0 130 -25 0 -25 0 0 -104 c0 -85 -3 -105 -16 -110 -42 -16
-44 -11 -44 104 0 103 -1 110 -20 110 -19 0 -20 -7 -20 -119z"/>
<path d="M1520 960 c-33 -33 -21 -78 33 -120 20 -16 27 -30 25 -49 -3 -22 -8
-26 -40 -29 -31 -3 -38 -7 -38 -24 0 -19 4 -20 46 -14 61 8 74 20 74 68 0 33
-7 46 -40 79 -35 34 -39 43 -29 60 8 15 18 20 35 16 18 -3 24 0 24 14 0 27
-63 26 -90 -1z"/>
<path d="M1384 676 c-8 -32 2 -46 32 -46 17 0 24 5 24 20 0 11 -7 20 -15 20
-9 0 -12 -6 -8 -17 4 -11 3 -14 -5 -9 -19 12 -14 36 11 46 21 8 21 9 -5 9 -21
1 -29 -5 -34 -23z"/>
<path d="M1470 665 c0 -32 3 -35 28 -34 16 1 20 3 10 6 -12 3 -18 14 -18 34 0
16 -4 29 -10 29 -5 0 -10 -16 -10 -35z"/>
<path d="M1538 693 c6 -2 12 -18 12 -34 0 -41 17 -36 22 6 4 32 2 35 -22 34
-14 0 -19 -3 -12 -6z"/>
<path d="M1683 683 c-51 -3 -63 -7 -63 -21 0 -14 10 -17 65 -17 61 0 65 1 65
23 0 12 -1 21 -2 20 -2 -1 -31 -3 -65 -5z"/>
</g>
</svg>
