<?xml version="1.0" standalone="no"?>
<!DOCTYPE svg PUBLIC "-//W3C//DTD SVG 20010904//EN"
 "http://www.w3.org/TR/2001/REC-SVG-20010904/DTD/svg10.dtd">
<svg version="1.0" xmlns="http://www.w3.org/2000/svg"
 width="200.000000pt" height="200.000000pt" viewBox="0 0 200.000000 200.000000"
 preserveAspectRatio="xMidYMid meet">
<metadata>
Created by potrace 1.10, written by Peter Selinger 2001-2011
</metadata>
<g transform="translate(0.000000,200.000000) scale(0.100000,-0.100000)"
fill="#000000" stroke="none">
<path d="M704 1538 c-11 -13 -28 -49 -37 -80 -35 -114 -136 -230 -248 -284
-62 -30 -58 -41 10 -23 28 7 49 15 46 17 -6 6 40 42 54 42 6 0 11 7 11 17 0 9
3 14 6 10 6 -6 94 88 94 101 0 5 8 17 18 28 9 10 26 46 36 79 20 66 38 86 76
83 14 0 38 3 53 7 17 4 45 3 69 -4 40 -12 40 -13 34 -51 -3 -21 -11 -51 -18
-67 -6 -15 -10 -31 -10 -36 5 -23 -117 -237 -135 -237 -7 0 -13 -4 -13 -9 0
-4 -20 -30 -45 -57 -28 -29 -41 -50 -33 -53 18 -6 141 128 186 205 47 80 91
205 99 281 l6 53 -120 0 c-111 0 -121 -2 -139 -22z"/>
<path d="M1043 1502 c21 -195 185 -448 344 -528 28 -15 28 -14 -4 16 -18 17
-33 36 -33 41 0 6 -4 8 -9 5 -5 -3 -12 6 -16 21 -5 21 -8 24 -16 12 -7 -12 -9
-12 -9 1 0 8 -9 21 -21 28 -12 7 -18 16 -15 19 3 4 -10 21 -29 40 -19 19 -35
36 -35 38 0 3 -9 14 -20 25 -12 12 -18 26 -14 32 4 6 3 8 -2 5 -6 -3 -22 33
-38 81 -42 133 -44 139 -39 164 4 22 8 23 76 21 40 -1 80 -2 90 -3 11 0 21 -9
24 -20 3 -11 8 -18 12 -15 4 2 7 -12 6 -31 0 -25 3 -33 13 -29 7 3 10 0 6 -6
-5 -8 53 -107 76 -129 3 -3 18 -20 33 -38 15 -19 27 -31 27 -28 0 3 12 -6 26
-19 15 -14 32 -25 39 -25 7 0 18 -6 24 -14 6 -7 32 -19 56 -26 25 -7 49 -19
53 -27 5 -8 19 -15 31 -16 31 -2 39 -22 38 -90 -1 -31 3 -59 8 -61 6 -3 4 -5
-2 -5 -7 -1 -13 -6 -13 -12 0 -22 -43 -49 -79 -49 -27 0 -32 -3 -21 -10 17
-11 17 -11 -24 -16 -16 -2 -32 -7 -35 -11 -3 -5 -30 -26 -59 -47 -29 -21 -64
-53 -78 -72 -15 -19 -29 -32 -33 -30 -4 3 -13 -15 -20 -40 -7 -24 -16 -42 -20
-39 -4 2 -19 -29 -32 -70 -21 -65 -27 -74 -53 -79 -48 -10 -184 -7 -191 4 -8
13 43 199 60 220 7 8 15 23 18 33 4 10 11 15 17 12 6 -4 7 1 3 11 -5 13 -3 15
7 9 9 -5 11 -4 6 4 -8 12 56 109 82 125 8 4 21 16 30 27 8 10 20 15 25 12 6
-3 7 -2 4 4 -3 5 4 18 16 28 37 32 -1 30 -41 -2 -118 -95 -230 -302 -248 -459
-6 -50 -5 -53 17 -59 43 -10 215 -1 232 13 8 7 22 36 31 65 30 92 59 141 131
213 70 70 137 110 223 134 59 15 72 39 72 133 0 107 -12 128 -85 148 -57 16
-133 56 -183 97 -56 46 -136 167 -153 231 -22 86 -31 91 -171 91 l-121 0 6
-58z"/>
<path d="M294 1128 c-32 -15 -44 -51 -44 -131 0 -100 11 -116 97 -148 99 -37
150 -68 210 -131 55 -59 85 -111 117 -203 27 -77 43 -85 174 -85 123 0 123 0
99 115 -30 149 -140 330 -259 427 -65 53 -187 117 -276 144 -86 27 -88 27
-118 12z m119 -41 c-4 -7 0 -8 11 -4 21 8 134 -38 154 -62 6 -8 12 -11 12 -5
1 5 9 -1 19 -13 10 -12 21 -19 25 -16 3 4 6 1 6 -7 0 -7 18 -30 40 -51 22 -22
40 -36 40 -33 0 3 18 -16 40 -41 22 -25 40 -51 40 -56 0 -6 5 -7 10 -4 6 4 10
3 9 -2 -4 -21 2 -44 10 -39 7 5 17 -8 26 -34 1 -3 11 -27 23 -53 12 -27 22
-57 22 -66 0 -10 3 -21 7 -25 4 -3 8 -12 9 -19 1 -7 5 -29 9 -49 6 -32 4 -38
-9 -38 -10 0 -15 -3 -13 -7 9 -13 -107 -9 -121 5 -7 6 -19 12 -25 12 -7 0 -6
-4 3 -10 13 -9 13 -10 -1 -10 -25 0 -61 39 -54 60 3 10 -1 25 -10 33 -8 9 -15
24 -15 35 0 11 -7 25 -14 32 -8 6 -20 27 -26 45 -13 39 -105 128 -168 161 -25
13 -39 24 -31 24 23 1 -45 27 -90 35 -36 6 -43 11 -48 36 -3 16 -9 27 -13 24
-4 -2 -7 22 -7 55 0 32 4 57 8 54 4 -2 10 8 13 23 6 27 8 28 61 25 36 -3 53
-8 48 -15z"/>
</g>
</svg>
