<?xml version="1.0" standalone="no"?>
<!DOCTYPE svg PUBLIC "-//W3C//DTD SVG 20010904//EN"
 "http://www.w3.org/TR/2001/REC-SVG-20010904/DTD/svg10.dtd">
<svg version="1.0" xmlns="http://www.w3.org/2000/svg"
 width="200.000000pt" height="200.000000pt" viewBox="0 0 200.000000 200.000000"
 preserveAspectRatio="xMidYMid meet">
<metadata>
Created by potrace 1.10, written by Peter Selinger 2001-2011
</metadata>
<g transform="translate(0.000000,200.000000) scale(0.100000,-0.100000)"
fill="#000000" stroke="none">
<path d="M1344 1624 c72 -14 131 -44 180 -90 27 -26 76 -116 76 -141 0 -7 5
-13 10 -13 6 0 4 15 -5 36 -8 20 -15 45 -15 56 0 10 -4 17 -9 14 -5 -3 -14 7
-21 23 -6 17 -27 40 -46 53 -19 13 -34 26 -34 31 0 4 -7 7 -15 7 -9 0 -26 6
-38 14 -12 8 -51 16 -87 19 l-65 5 69 -14z"/>
<path d="M1165 1616 c-34 -12 -135 -106 -135 -124 0 -7 -4 -12 -10 -12 -5 0
-10 -10 -9 -22 0 -22 1 -22 9 -3 27 64 142 156 205 163 42 5 45 12 4 11 -19
-1 -47 -6 -64 -13z"/>
<path d="M1260 1503 c-43 -8 -104 -59 -127 -104 -20 -41 -22 -65 -28 -309 -3
-146 -8 -300 -11 -343 -10 -168 -78 -276 -214 -341 -57 -27 -75 -30 -150 -30
-71 1 -93 5 -137 27 -102 52 -158 121 -187 227 -12 47 -15 50 -15 22 -1 -18 3
-40 8 -50 5 -9 15 -32 22 -51 26 -69 167 -181 228 -181 12 0 30 -4 39 -9 32
-16 151 8 222 45 64 34 140 111 140 143 0 6 4 11 9 11 4 0 18 31 30 68 18 58
21 92 21 239 0 102 4 174 10 178 6 3 7 -1 4 -9 -3 -9 -1 -16 5 -16 6 0 11 19
11 45 l0 45 88 0 c48 0 104 5 124 10 44 13 112 73 127 113 14 35 14 117 1 151
-18 48 -71 95 -124 111 -51 15 -53 16 -96 8z m144 -45 c38 -24 76 -96 76 -142
0 -60 -38 -123 -106 -175 -6 -5 -65 -12 -131 -17 l-121 -9 -1 108 c-1 93 2
114 23 160 14 29 33 60 43 69 50 43 155 47 217 6z"/>
<path d="M991 1393 c-6 -21 -11 -98 -11 -170 0 -82 -4 -133 -10 -133 -5 0 -10
-18 -10 -39 l0 -40 -147 -4 c-82 -2 -160 -6 -175 -9 -37 -7 -107 -50 -142 -87
-36 -37 -26 -41 12 -6 15 14 32 23 39 21 7 -3 10 1 7 9 -7 16 40 43 88 51 18
2 98 7 178 11 80 3 148 10 151 15 20 31 26 -235 7 -328 -10 -53 -40 -113 -60
-122 -5 -2 -8 -10 -8 -17 0 -12 -28 -32 -100 -73 -41 -23 -157 -20 -210 5 -48
22 -103 76 -122 118 -6 14 -16 25 -21 25 -6 0 -8 2 -5 6 3 3 0 25 -7 49 -8 24
-12 45 -10 47 2 1 6 25 9 52 2 26 12 56 20 65 18 20 20 31 7 31 -16 0 -43 -85
-44 -136 -1 -57 17 -127 38 -148 8 -8 15 -19 15 -23 0 -16 64 -70 109 -93 136
-68 297 -12 376 131 l30 54 0 360 c0 198 4 372 9 388 4 15 6 27 3 27 -4 0 -11
-17 -16 -37z"/>
<path d="M1616 1358 c-3 -7 -7 -38 -9 -69 -5 -50 -14 -75 -60 -165 -12 -23
-60 -58 -122 -89 -31 -15 -65 -20 -157 -23 -65 -2 -118 -7 -118 -12 0 -12 239
-3 255 10 8 7 19 9 25 5 5 -3 10 -2 10 2 0 5 12 16 28 25 47 29 110 92 104
107 -2 8 0 11 5 8 14 -9 45 100 47 162 1 51 -1 62 -8 39z"/>
<path d="M752 1095 c-102 -12 -167 -28 -182 -44 -3 -4 -24 -19 -47 -35 -24
-16 -43 -31 -43 -35 0 -3 -16 -23 -35 -45 -19 -21 -32 -42 -29 -48 3 -5 18 11
33 35 68 106 170 153 353 163 68 4 132 10 143 15 30 12 -61 9 -193 -6z"/>
<path d="M402 845 c-7 -14 -12 -38 -11 -53 0 -19 4 -13 14 23 15 56 14 67 -3
30z"/>
</g>
</svg>
